{"title":"Inspector Montalbano S01E10 The Goldfinch and the Cat x264 RB58.","uid":11354982,"size":1084709283,"categoryP":"video","categoryS":"tv_shows","magnet":"?xt=urn:btih:fa3ae3d33172c10635a76aee82371e270601ed72&amp;dn=Inspector+Montalbano+S01E10+The+Goldfinch+and+the+Cat+x264+RB58.&amp;tr=udp%3A%2F%2Ftracker.openbittorrent.com%3A80&amp;tr=udp%3A%2F%2Fopen.demonii.com%3A1337&amp;tr=udp%3A%2F%2Ftracker.coppersurfer.tk%3A6969&amp;tr=udp%3A%2F%2Fexodus.desync.com%3A6969","seeders":4,"leechers":2,"uploader":"RedBaron58","files":1,"time":1414889103,"description":"Inspector Montalbano S01E10 The Goldfinch and the Cat x264 mp4\nIn Italian with Hard Coded BBC English subtitles\n &lt;a href=&quot;\nhttp://www.imdb.com/title/tt0920489/&quot; rel=&quot;nofollow&quot; target=&quot;_NEW&quot;&gt;\nhttp://www.imdb.com/title/tt0920489/&lt;/a&gt;\n\n\n\n\nThank you for your kind comments and thumbs ups on my other torrents, your feedback is welcome.\n\n\nAbout the Episode:\nThe curmudgeonly Sicilian detective investigates when a series of mysterious muggings in Vigata ends in murder. \nHowever, as the case proceeds, he discovers an unexpected connection to an incident in which a father \nembarked on a destructive rampage in a hospital emergency room, and then finds a further link \nto the disappearance of a doctor who is presumed to be dead.\n\n\nI hope you enjoy.\n\n\nTechnical:\n\nGeneral\nComplete name                            : H:Inspector Montalbano S01E10 The Goldfinch and the Cat x264 RB58.mp4\nFormat                                   : MPEG-4\nFormat profile                           : Base Media\nCodec ID                                 : isom\nFile size                                : 1.01 GiB\nDuration                                 : 1h 35mn\nOverall bit rate                         : 1 521 Kbps\nWriting application                      : Lavf54.63.104\n\nVideo\nID                                       : 1\nFormat                                   : AVC\nFormat/Info                              : Advanced Video Codec\nFormat profile                           : &lt;a class=&quot;__cf_email__&quot; href=&quot;/cdn-cgi/l/email-protection&quot; data-cfemail=&quot;d49cbdb3bc9498e7fae4&quot;&gt;[email&amp;#160;protected]&lt;/a&gt;&lt;script cf-hash='f9e31' type=&quot;text/javascript&quot;&gt;\n/* &lt;![CDATA[ */!function(){try{var t=&quot;currentScript&quot;in document?document.currentScript:function(){for(var t=document.getElementsByTagName(&quot;script&quot;),e=t.length;e--;)if(t[e].getAttribute(&quot;cf-hash&quot;))return t[e]}();if(t&amp;&amp;t.previousSibling){var e,r,n,i,c=t.previousSibling,a=c.getAttribute(&quot;data-cfemail&quot;);if(a){for(e=&quot;&quot;,r=parseInt(a.substr(0,2),16),n=2;a.length-n;n+=2)i=parseInt(a.substr(n,2),16)^r,e+=String.fromCharCode(i);e=document.createTextNode(e),c.parentNode.replaceChild(e,c)}}}catch(u){}}();/* ]]&gt; */&lt;/script&gt;\nFormat settings, CABAC                   : Yes\nFormat settings, ReFrames                : 4 frames\nCodec ID                                 : avc1\nCodec ID/Info                            : Advanced Video Coding\nDuration                                 : 1h 35mn\nBit rate                                 : 1 400 Kbps\nWidth                                    : 832 pixels\nHeight                                   : 468 pixels\nDisplay aspect ratio                     : 16:9\nFrame rate mode                          : Constant\nFrame rate                               : 25.000 fps\nColor space                              : YUV\nChroma subsampling                       : 4:2:0\nBit depth                                : 8 bits\nScan type                                : Progressive\nBits/(Pixel*Frame)                       : 0.144\nStream size                              : 952 MiB (92%)\nWriting library                          : x264 core 123 r2189 35cf912\nEncoding settings                        : cabac=1 / ref=3 / deblock=1:0:0\n\nAudio\nID                                       : 2\nFormat                                   : AAC\nFormat/Info                              : Advanced Audio Codec\nFormat profile                           : LC\nCodec ID                                 : 40\nDuration                                 : 1h 35mn\nBit rate mode                            : Constant\nBit rate                                 : 112 Kbps\nChannel(s)                               : 2 channels\nChannel positions                        : Front: L R\nSampling rate                            : 48.0 KHz\nCompression mode                         : Lossy\nStream size                              : 76.2 MiB (7%)","torrent":{"xt":"urn:btih:fa3ae3d33172c10635a76aee82371e270601ed72","amp;dn":"Inspector+Montalbano+S01E10+The+Goldfinch+and+the+Cat+x264+RB58.","amp;tr":["udp%3A%2F%2Ftracker.openbittorrent.com%3A80","udp%3A%2F%2Fopen.demonii.com%3A1337","udp%3A%2F%2Ftracker.coppersurfer.tk%3A6969","udp%3A%2F%2Fexodus.desync.com%3A6969"],"infoHash":"fa3ae3d33172c10635a76aee82371e270601ed72","infoHashBuffer":{"type":"Buffer","data":[250,58,227,211,49,114,193,6,53,167,106,238,130,55,30,39,6,1,237,114]},"announce":[],"urlList":[]}}